<svg width="4" height="8" viewBox="0 0 4 8" fill="none" xmlns="http://www.w3.org/2000/svg">
<path d="M3.94773 7.23151C3.98118 7.26906 4 7.32017 4 7.37349C4 7.42681 3.98118 7.47792 3.94773 7.51547L3.5731 7.9394C3.54103 7.97807 3.49626 8 3.4494 8C3.40254 8 3.35777 7.97807 3.32571 7.9394L0.0777537 4.26396C0.0280298 4.20776 6.26105e-05 4.13152 8.43479e-07 4.05199L8.21738e-07 3.94801C6.25555e-05 3.86848 0.0280298 3.79224 0.0777536 3.73604L3.3257 0.0605984C3.35777 0.0219336 3.40254 2.18394e-08 3.4494 2.01265e-08C3.49626 1.84137e-08 3.54103 0.0219336 3.5731 0.0605984L3.94773 0.484534C3.98118 0.522081 4 0.573194 4 0.626513C4 0.679832 3.98118 0.730943 3.94773 0.768491L1.09208 4L3.94773 7.23151Z" fill="#898989"/>
</svg>
