<svg width="4" height="8" viewBox="0 0 4 8" fill="none" xmlns="http://www.w3.org/2000/svg">
<path d="M0.052271 0.768491C0.0188174 0.730943 1.4214e-07 0.679832 1.30991e-07 0.626512C1.19843e-07 0.573193 0.0188173 0.522081 0.052271 0.484534L0.426899 0.0605982C0.458966 0.0219332 0.503738 -1.84137e-08 0.550596 -2.01265e-08C0.597455 -2.18394e-08 0.642227 0.0219332 0.674294 0.0605982L3.92225 3.73604C3.97197 3.79224 3.99994 3.86848 4 3.94801L4 4.05199C3.99994 4.13152 3.97197 4.20776 3.92225 4.26396L0.674296 7.9394C0.642229 7.97807 0.597457 8 0.550598 8C0.503739 8 0.458967 7.97807 0.4269 7.9394L0.0522724 7.51547C0.0188188 7.47792 1.5528e-06 7.42681 1.54165e-06 7.37349C1.5305e-06 7.32017 0.0188187 7.26906 0.0522724 7.23151L2.90792 4L0.052271 0.768491Z" fill="#898989"/>
</svg>
