<svg width="575" height="446" viewBox="0 0 575 446" fill="none" xmlns="http://www.w3.org/2000/svg">
<g clip-path="url(#clip0_1506_98)">
<path d="M557.372 0H54.2235C49.5499 0.0056249 45.0694 1.86387 41.7646 5.16714C38.4599 8.47041 36.6008 12.949 36.5952 17.6205V324.073C36.6008 328.745 38.4599 333.223 41.7646 336.527C45.0694 339.83 49.5499 341.688 54.2235 341.694H557.372C562.045 341.688 566.526 339.83 569.83 336.527C573.135 333.223 574.994 328.745 575 324.073V17.6205C574.994 12.949 573.135 8.47042 569.83 5.16715C566.526 1.86388 562.045 0.00562695 557.372 0ZM573.446 324.073C573.446 326.183 573.03 328.272 572.222 330.222C571.415 332.171 570.231 333.943 568.738 335.435C567.245 336.927 565.473 338.11 563.523 338.917C561.573 339.725 559.483 340.141 557.372 340.141H54.2235C49.9603 340.141 45.8717 338.448 42.8571 335.435C39.8426 332.421 38.1491 328.335 38.1491 324.073V122.447C38.1491 106.571 41.2774 90.8505 47.3556 76.183C53.4338 61.5155 62.3427 48.1882 73.5737 36.9622C84.8047 25.7361 98.1378 16.8311 112.812 10.7557C127.486 4.68017 143.213 1.55315 159.096 1.55315H557.372C559.483 1.55315 561.573 1.96875 563.523 2.77621C565.473 3.58367 567.245 4.76718 568.738 6.25918C570.231 7.75117 571.415 9.52242 572.222 11.4718C573.03 13.4212 573.446 15.5105 573.446 17.6205V324.073Z" fill="#3F3D56"/>
<path d="M527.468 260.721H297.01C294.618 260.718 292.324 259.767 290.633 258.076C288.941 256.385 287.99 254.093 287.987 251.701V176.89C287.99 174.498 288.941 172.206 290.633 170.515C292.324 168.824 294.618 167.873 297.01 167.87H527.468C529.86 167.873 532.153 168.824 533.845 170.515C535.537 172.206 536.488 174.498 536.491 176.89V251.701C536.488 254.093 535.537 256.385 533.845 258.076C532.153 259.767 529.86 260.718 527.468 260.721Z" fill="#E6E6E6"/>
<path d="M168.13 49.4738C171.838 49.4738 174.844 46.4022 174.844 42.6131C174.844 38.8241 171.838 35.7524 168.13 35.7524C164.422 35.7524 161.416 38.8241 161.416 42.6131C161.416 46.4022 164.422 49.4738 168.13 49.4738Z" fill="#3F3D56"/>
<path d="M144.935 49.4738C148.643 49.4738 151.649 46.4022 151.649 42.6131C151.649 38.8241 148.643 35.7524 144.935 35.7524C141.227 35.7524 138.221 38.8241 138.221 42.6131C138.221 46.4022 141.227 49.4738 144.935 49.4738Z" fill="#3F3D56"/>
<path d="M121.741 49.4738C125.449 49.4738 128.455 46.4022 128.455 42.6131C128.455 38.8241 125.449 35.7524 121.741 35.7524C118.033 35.7524 115.027 38.8241 115.027 42.6131C115.027 46.4022 118.033 49.4738 121.741 49.4738Z" fill="#3F3D56"/>
<path d="M387.508 112.688H293.606C292.056 112.688 290.57 112.073 289.474 110.978C288.379 109.882 287.763 108.397 287.763 106.848C287.763 105.299 288.379 103.814 289.474 102.719C290.57 101.624 292.056 101.008 293.606 101.008H387.508C389.058 101.008 390.544 101.624 391.639 102.719C392.735 103.814 393.351 105.299 393.351 106.848C393.351 108.397 392.735 109.882 391.639 110.978C390.544 112.073 389.058 112.688 387.508 112.688Z" fill="#E6E6E6"/>
<path d="M460.79 132.454H293.606C292.056 132.454 290.57 131.839 289.474 130.743C288.379 129.648 287.763 128.163 287.763 126.614C287.763 125.065 288.379 123.58 289.474 122.485C290.57 121.389 292.056 120.774 293.606 120.774H460.79C462.339 120.774 463.825 121.389 464.921 122.485C466.017 123.58 466.632 125.065 466.632 126.614C466.632 128.163 466.017 129.648 464.921 130.743C463.825 131.839 462.339 132.454 460.79 132.454Z" fill="#E6E6E6"/>
<path d="M126.104 437.272L133.942 437.272L137.671 407.051L126.103 407.052L126.104 437.272Z" fill="#FFB6B6"/>
<path d="M125.828 445.446L149.932 445.445V445.14C149.932 442.653 148.943 440.268 147.184 438.509C145.424 436.751 143.038 435.763 140.55 435.763H140.549L136.147 432.424L127.932 435.763L125.828 435.763L125.828 445.446Z" fill="#2F2E41"/>
<path d="M80.7935 437.272L88.6319 437.272L92.3603 407.051L80.792 407.052L80.7935 437.272Z" fill="#FFB6B6"/>
<path d="M80.517 445.446L104.621 445.445V445.14C104.621 442.653 103.632 440.268 101.873 438.509C100.113 436.751 97.7271 435.763 95.2389 435.763H95.2384L90.8355 432.424L82.6207 435.763L80.5166 435.763L80.517 445.446Z" fill="#2F2E41"/>
<path d="M178.902 236.621L152.196 211.586L159.43 199.475L185.768 229.582C187.331 229.424 188.905 229.752 190.275 230.519C191.645 231.287 192.747 232.457 193.429 233.871C194.111 235.286 194.341 236.876 194.088 238.426C193.835 239.975 193.111 241.41 192.014 242.534C190.918 243.658 189.502 244.418 187.958 244.71C186.415 245.002 184.819 244.812 183.387 244.167C181.955 243.521 180.756 242.45 179.954 241.1C179.152 239.751 178.785 238.186 178.902 236.621V236.621Z" fill="#FFB6B6"/>
<path d="M73.1247 273.067C73.1247 273.067 69.8093 302.893 76.9927 331.062L74.2871 344.678L80.3081 422.748H94.9229L105.174 294.056L124.309 422.748H139.659L137.775 352.05L144.419 284.114L141.643 268.649L73.1247 273.067Z" fill="#2F2E41"/>
<path d="M113.51 156.868H80.8798L75.3921 170.814L76.7162 281.076C76.7162 281.076 141.367 281.076 145.787 276.657L131.973 228.605L127 167.297L113.51 156.868Z" fill="#7CB7C5"/>
<path d="M131.42 166.744L154.628 191.599L162.917 197.122L165.127 204.303L155.733 220.32L145.235 216.454L141.92 204.303L122.438 188.383L120.369 162.878L131.42 166.744Z" fill="#2F2E41"/>
<path d="M110.469 157.657L114.287 173.953L119.541 232.195L126.724 276.381H147.448L135.012 228.329L130.039 166.468L113.462 156.527L110.469 157.657Z" fill="#2F2E41"/>
<path d="M83.8538 157.657L89.7017 176.41L99.0954 238.271L84.7286 282.456L70.7798 282.674L67.15 268.966L75.3349 233.852L64.2832 166.468L80.8603 156.527L83.8538 157.657Z" fill="#2F2E41"/>
<path d="M95.9277 151.346C106.851 151.346 115.707 142.495 115.707 131.576C115.707 120.657 106.851 111.806 95.9277 111.806C85.0042 111.806 76.1489 120.657 76.1489 131.576C76.1489 142.495 85.0042 151.346 95.9277 151.346Z" fill="#FFB6B6"/>
<path d="M84.5173 141.363C84.5173 141.363 83.5673 142.803 85.4014 148.914L76.9924 142.166L76.0726 134.755C76.0726 134.755 71.7929 119.477 86.4663 112.144C86.4663 112.144 99.3055 105.421 111.533 115.199C111.533 115.199 116.424 115.81 115.813 116.421C115.202 117.033 112.145 118.866 115.202 118.255C118.259 117.644 120.093 114.588 120.093 116.421C120.093 118.255 114.59 122.533 114.59 122.533C114.59 122.533 116.73 128.338 102.057 120.394C100.487 124.316 97.4637 127.481 93.6165 129.229L94.0873 129.688L90.4403 137.505C90.4403 137.505 86.6572 132.501 84.5173 141.363Z" fill="#2F2E41"/>
<path d="M86.0697 295.634L152.521 145.866C153.213 144.312 154.493 143.095 156.081 142.484C157.668 141.872 159.434 141.915 160.99 142.602L209.651 164.174C211.205 164.865 212.422 166.145 213.034 167.732C213.646 169.318 213.603 171.083 212.915 172.639L146.464 322.407C145.772 323.961 144.492 325.177 142.905 325.789C141.317 326.4 139.552 326.358 137.995 325.67L89.3345 304.098C87.7799 303.407 86.5631 302.128 85.9511 300.541C85.339 298.954 85.3817 297.189 86.0697 295.634Z" fill="white"/>
<path d="M86.0697 295.634L152.521 145.866C153.213 144.312 154.493 143.095 156.081 142.484C157.668 141.872 159.434 141.915 160.99 142.602L209.651 164.174C211.205 164.865 212.422 166.145 213.034 167.732C213.646 169.318 213.603 171.083 212.915 172.639L146.464 322.407C145.772 323.961 144.492 325.177 142.905 325.789C141.317 326.4 139.552 326.358 137.995 325.67L89.3345 304.098C87.7799 303.407 86.5631 302.128 85.9511 300.541C85.339 298.954 85.3817 297.189 86.0697 295.634ZM211.883 172.181C212.45 170.899 212.485 169.445 211.981 168.137C211.477 166.83 210.474 165.776 209.193 165.206L160.532 143.634C159.25 143.067 157.795 143.032 156.487 143.536C155.178 144.041 154.124 145.043 153.554 146.323L87.1021 296.091C86.5351 297.373 86.4999 298.827 87.0043 300.135C87.5086 301.443 88.5113 302.497 89.7923 303.066L138.453 324.638C139.736 325.205 141.19 325.24 142.499 324.736C143.807 324.232 144.862 323.23 145.431 321.949L211.883 172.181Z" fill="#3F3D56"/>
<path d="M158.707 234.395C172.44 234.395 183.573 223.267 183.573 209.54C183.573 195.813 172.44 184.686 158.707 184.686C144.975 184.686 133.842 195.813 133.842 209.54C133.842 223.267 144.975 234.395 158.707 234.395Z" fill="#CCCCCC"/>
<path d="M146.61 261.659C160.343 261.659 171.476 250.532 171.476 236.805C171.476 223.078 160.343 211.95 146.61 211.95C132.877 211.95 121.745 223.078 121.745 236.805C121.745 250.532 132.877 261.659 146.61 261.659Z" fill="#3F3D56"/>
<path d="M124.432 286.79C121.447 285.466 118.752 283.568 116.501 281.204C114.25 278.84 112.487 276.055 111.312 273.01C110.137 269.964 109.574 266.717 109.655 263.454C109.736 260.192 110.459 256.976 111.783 253.993C113.106 251.009 115.005 248.315 117.371 246.065C119.736 243.815 122.522 242.052 125.569 240.878C128.615 239.704 131.864 239.141 135.128 239.222C138.393 239.303 141.609 240.026 144.594 241.349C157.148 246.914 170.914 275.457 157.244 274.146C141.589 272.644 136.986 292.355 124.432 286.79Z" fill="#7CB7C5"/>
<path d="M90.9869 272.045L71.5566 223.654L87.095 226.76L100.063 268.257C101.562 268.724 102.882 269.641 103.842 270.884C104.802 272.127 105.357 273.634 105.43 275.203C105.503 276.771 105.092 278.324 104.252 279.651C103.412 280.978 102.184 282.014 100.734 282.619C99.2845 283.225 97.6837 283.369 96.1491 283.034C94.6145 282.698 93.2204 281.899 92.156 280.744C91.0916 279.589 90.4084 278.135 90.1993 276.579C89.9901 275.022 90.2651 273.44 90.9869 272.045L90.9869 272.045Z" fill="#FFB6B6"/>
<path d="M59.5258 178.273C58.3947 190.748 60.7374 201.7 64.9388 211.839L65.4784 220.856L69.7978 227.004L88.2164 229.408L91.5982 218.747L84.0278 208.679L83.3913 183.535L64.503 166.263L59.5258 178.273Z" fill="#2F2E41"/>
<path d="M42.1548 432.54C41.7936 432.556 41.4361 432.461 41.1307 432.268C40.8253 432.075 40.5866 431.792 40.4472 431.459C40.3077 431.126 40.2742 430.757 40.351 430.404C40.4279 430.051 40.6115 429.73 40.877 429.485L40.9978 429.005C40.9819 428.966 40.9659 428.928 40.9498 428.89C40.586 428.031 39.9764 427.298 39.1975 426.785C38.4187 426.271 37.5053 425.999 36.5722 426.002C35.639 426.006 34.7277 426.285 33.9527 426.804C33.1777 427.324 32.5735 428.061 32.2161 428.922C30.7877 432.361 28.9691 435.806 28.5213 439.442C28.324 441.049 28.4072 442.678 28.7672 444.257C25.4122 436.941 23.67 428.991 23.6588 420.943C23.6581 418.924 23.7703 416.906 23.995 414.899C24.1807 413.254 24.4383 411.621 24.7678 409.999C26.566 401.199 30.4268 392.951 36.0332 385.933C38.7467 384.453 40.9411 382.177 42.3208 379.412C42.8206 378.419 43.1739 377.358 43.3696 376.263C43.0635 376.303 42.2154 371.643 42.4463 371.357C42.0197 370.71 41.2562 370.388 40.7904 369.757C38.4733 366.617 35.2811 367.165 33.6146 371.432C30.0545 373.228 30.0201 376.207 32.2045 379.071C33.5942 380.894 33.7851 383.36 35.0045 385.311C34.8791 385.471 34.7486 385.627 34.6231 385.788C32.3299 388.735 30.3312 391.9 28.6556 395.237C29.0631 391.499 28.5768 387.717 27.2367 384.203C25.8785 380.927 23.3327 378.169 21.0909 375.338C20.498 374.577 19.6927 374.01 18.777 373.706C17.8613 373.403 16.8762 373.378 15.9463 373.634C15.0163 373.891 14.1833 374.417 13.5524 375.146C12.9215 375.876 12.5211 376.776 12.4018 377.732C12.3972 377.774 12.3928 377.816 12.3884 377.858C12.7214 378.045 13.0473 378.245 13.3662 378.455C13.7669 378.723 14.0773 379.105 14.2569 379.552C14.4364 379.999 14.4768 380.49 14.3725 380.96C14.2683 381.43 14.0244 381.858 13.6728 382.187C13.3211 382.517 12.8782 382.732 12.402 382.806L12.3532 382.813C12.4718 384.013 12.6815 385.202 12.9804 386.369C10.1045 397.487 16.3135 401.536 25.1792 401.718C25.3749 401.818 25.5656 401.918 25.7613 402.014C24.0779 406.782 23.022 411.749 22.6201 416.79C22.3925 419.764 22.4059 422.752 22.6602 425.723L22.6451 425.618C22.0028 422.313 20.2392 419.332 17.6522 417.176C13.8099 414.021 8.38136 412.86 4.23617 410.324C3.79563 410.041 3.2834 409.89 2.75988 409.889C2.23635 409.887 1.72338 410.036 1.28147 410.316C0.839556 410.597 0.48713 410.998 0.265762 411.472C0.0443935 411.946 -0.0366844 412.474 0.0320911 412.993L0.0490435 413.104C0.666976 413.355 1.26863 413.645 1.8505 413.971C2.18348 414.159 2.50943 414.358 2.82835 414.569C3.229 414.837 3.53945 415.219 3.71902 415.666C3.89858 416.113 3.93889 416.604 3.83467 417.074C3.73044 417.544 3.48654 417.972 3.13492 418.301C2.7833 418.631 2.34037 418.846 1.86414 418.919L1.81534 418.927C1.78023 418.932 1.75008 418.937 1.71503 418.942C2.77084 421.462 4.25271 423.781 6.09572 425.799C7.89401 435.504 15.6176 436.424 23.8796 433.598H23.8846C24.7911 437.536 26.1045 441.368 27.8037 445.034H41.8039C41.8541 444.879 41.8993 444.718 41.9445 444.563C40.6486 444.644 39.3476 444.567 38.0705 444.332C39.1093 443.058 40.148 441.774 41.1867 440.5C41.2099 440.476 41.2317 440.451 41.252 440.425C41.7789 439.773 42.3108 439.126 42.8377 438.474L42.838 438.473C42.8661 436.474 42.6366 434.48 42.1553 432.54L42.1548 432.54Z" fill="#F2F2F2"/>
<path d="M198.744 445.076C198.744 445.197 198.72 445.318 198.674 445.43C198.628 445.542 198.56 445.644 198.474 445.73C198.388 445.816 198.286 445.884 198.173 445.93C198.061 445.977 197.941 446 197.819 446H1.03342C0.788218 446 0.55306 445.903 0.379676 445.729C0.206293 445.556 0.108887 445.321 0.108887 445.076C0.108887 444.831 0.206293 444.596 0.379676 444.422C0.55306 444.249 0.788218 444.152 1.03342 444.152H197.819C197.941 444.151 198.061 444.175 198.173 444.221C198.286 444.268 198.388 444.336 198.474 444.422C198.56 444.507 198.628 444.609 198.674 444.722C198.72 444.834 198.744 444.954 198.744 445.076Z" fill="#CCCCCC"/>
</g>
<defs>
<clipPath id="clip0_1506_98">
<rect width="575" height="446" fill="white"/>
</clipPath>
</defs>
</svg>
